<svg width="43" height="41" viewBox="0 0 43 41" fill="none" xmlns="http://www.w3.org/2000/svg">
<path d="M18.202 9.08333H25.1401C25.1401 8.19928 24.7746 7.35143 24.124 6.72631C23.4735 6.10119 22.5911 5.75 21.671 5.75C20.751 5.75 19.8686 6.10119 19.218 6.72631C18.5675 7.35143 18.202 8.19928 18.202 9.08333ZM15.6002 9.08333C15.6002 8.31729 15.7572 7.55875 16.0623 6.85101C16.3674 6.14328 16.8145 5.50022 17.3783 4.95854C17.942 4.41687 18.6113 3.98719 19.3478 3.69404C20.0844 3.40088 20.8738 3.25 21.671 3.25C22.4683 3.25 23.2577 3.40088 23.9943 3.69404C24.7308 3.98719 25.4001 4.41687 25.9638 4.95854C26.5275 5.50022 26.9747 6.14328 27.2798 6.85101C27.5849 7.55875 27.7419 8.31729 27.7419 9.08333H37.7155C38.0605 9.08333 38.3914 9.21503 38.6354 9.44945C38.8793 9.68387 39.0164 10.0018 39.0164 10.3333C39.0164 10.6649 38.8793 10.9828 38.6354 11.2172C38.3914 11.4516 38.0605 11.5833 37.7155 11.5833H35.4259L33.3965 31.7683C33.2408 33.315 32.4911 34.7504 31.2937 35.7947C30.0962 36.839 28.5369 37.4173 26.9197 37.4167H16.4223C14.8055 37.4168 13.2466 36.8384 12.0495 35.7941C10.8524 34.7499 10.103 33.3147 9.94731 31.7683L7.91617 11.5833H5.62659C5.28156 11.5833 4.95068 11.4516 4.70671 11.2172C4.46274 10.9828 4.32568 10.6649 4.32568 10.3333C4.32568 10.0018 4.46274 9.68387 4.70671 9.44945C4.95068 9.21503 5.28156 9.08333 5.62659 9.08333H15.6002ZM19.0692 17C19.0692 16.6685 18.9322 16.3505 18.6882 16.1161C18.4442 15.8817 18.1134 15.75 17.7683 15.75C17.4233 15.75 17.0924 15.8817 16.8485 16.1161C16.6045 16.3505 16.4674 16.6685 16.4674 17V29.5C16.4674 29.8315 16.6045 30.1495 16.8485 30.3839C17.0924 30.6183 17.4233 30.75 17.7683 30.75C18.1134 30.75 18.4442 30.6183 18.6882 30.3839C18.9322 30.1495 19.0692 29.8315 19.0692 29.5V17ZM25.5737 15.75C25.9188 15.75 26.2497 15.8817 26.4936 16.1161C26.7376 16.3505 26.8746 16.6685 26.8746 17V29.5C26.8746 29.8315 26.7376 30.1495 26.4936 30.3839C26.2497 30.6183 25.9188 30.75 25.5737 30.75C25.2287 30.75 24.8978 30.6183 24.6539 30.3839C24.4099 30.1495 24.2728 29.8315 24.2728 29.5V17C24.2728 16.6685 24.4099 16.3505 24.6539 16.1161C24.8978 15.8817 25.2287 15.75 25.5737 15.75ZM12.537 31.5283C12.6305 32.4561 13.0803 33.3171 13.7986 33.9435C14.5169 34.5699 15.4523 34.9169 16.4223 34.9167H26.9197C27.8898 34.9169 28.8251 34.5699 29.5435 33.9435C30.2618 33.3171 30.7115 32.4561 30.8051 31.5283L32.8137 11.5833H10.5284L12.537 31.5283Z" fill="#862626"/>
</svg>
