<svg width="42" height="43" viewBox="0 0 42 43" fill="none" xmlns="http://www.w3.org/2000/svg">
<path fill-rule="evenodd" clip-rule="evenodd" d="M11.6667 9.55556C11.6667 7.02126 12.65 4.59077 14.4003 2.79876C16.1507 1.00674 18.5246 0 21 0C23.4754 0 25.8493 1.00674 27.5997 2.79876C29.35 4.59077 30.3333 7.02126 30.3333 9.55556C30.3333 12.0898 29.35 14.5203 27.5997 16.3124C25.8493 18.1044 23.4754 19.1111 21 19.1111C18.5246 19.1111 16.1507 18.1044 14.4003 16.3124C12.65 14.5203 11.6667 12.0898 11.6667 9.55556ZM11.6667 23.8889C8.57247 23.8889 5.60501 25.1473 3.41709 27.3873C1.22916 29.6274 0 32.6655 0 35.8333C0 37.7341 0.737498 39.5569 2.05025 40.9009C3.36301 42.2449 5.14348 43 7 43H35C36.8565 43 38.637 42.2449 39.9497 40.9009C41.2625 39.5569 42 37.7341 42 35.8333C42 32.6655 40.7708 29.6274 38.5829 27.3873C36.395 25.1473 33.4275 23.8889 30.3333 23.8889H11.6667Z" fill="#013E0F"/>
</svg>
